<svg width="104" height="115" viewBox="0 0 104 115" fill="none" xmlns="http://www.w3.org/2000/svg">
<g opacity="0.3">
<mask id="mask0_19_5489" style="mask-type:alpha" maskUnits="userSpaceOnUse" x="2" y="0" width="11" height="11">
<path d="M7.5094 10.425C10.397 10.425 12.7378 8.09121 12.7378 5.21245C12.7378 2.33368 10.397 0 7.5094 0C4.62184 0 2.28101 2.33368 2.28101 5.21245C2.28101 8.09121 4.62184 10.425 7.5094 10.425Z" fill="url(#paint0_linear_19_5489)"/>
</mask>
<g mask="url(#mask0_19_5489)">
<path d="M7.5094 10.425C10.397 10.425 12.7378 8.09121 12.7378 5.21245C12.7378 2.33368 10.397 0 7.5094 0C4.62184 0 2.28101 2.33368 2.28101 5.21245C2.28101 8.09121 4.62184 10.425 7.5094 10.425Z" fill="url(#paint1_linear_19_5489)"/>
</g>
<mask id="mask1_19_5489" style="mask-type:alpha" maskUnits="userSpaceOnUse" x="32" y="0" width="12" height="11">
<path d="M37.7904 10.425C40.678 10.425 43.0188 8.09121 43.0188 5.21245C43.0188 2.33368 40.678 0 37.7904 0C34.9028 0 32.562 2.33368 32.562 5.21245C32.562 8.09121 34.9028 10.425 37.7904 10.425Z" fill="url(#paint2_linear_19_5489)"/>
</mask>
<g mask="url(#mask1_19_5489)">
<path d="M37.7904 10.425C40.678 10.425 43.0188 8.09121 43.0188 5.21245C43.0188 2.33368 40.678 0 37.7904 0C34.9028 0 32.562 2.33368 32.562 5.21245C32.562 8.09121 34.9028 10.425 37.7904 10.425Z" fill="url(#paint3_linear_19_5489)"/>
</g>
<mask id="mask2_19_5489" style="mask-type:alpha" maskUnits="userSpaceOnUse" x="62" y="0" width="12" height="11">
<path d="M68.0717 10.425C70.9592 10.425 73.3 8.09121 73.3 5.21245C73.3 2.33368 70.9592 0 68.0717 0C65.1841 0 62.8433 2.33368 62.8433 5.21245C62.8433 8.09121 65.1841 10.425 68.0717 10.425Z" fill="url(#paint4_linear_19_5489)"/>
</mask>
<g mask="url(#mask2_19_5489)">
<path d="M68.0717 10.425C70.9592 10.425 73.3 8.09121 73.3 5.21245C73.3 2.33368 70.9592 0 68.0717 0C65.1841 0 62.8433 2.33368 62.8433 5.21245C62.8433 8.09121 65.1841 10.425 68.0717 10.425Z" fill="url(#paint5_linear_19_5489)"/>
</g>
<mask id="mask3_19_5489" style="mask-type:alpha" maskUnits="userSpaceOnUse" x="93" y="0" width="11" height="11">
<path d="M98.3526 10.425C101.24 10.425 103.581 8.09121 103.581 5.21245C103.581 2.33368 101.24 0 98.3526 0C95.4651 0 93.1243 2.33368 93.1243 5.21245C93.1243 8.09121 95.4651 10.425 98.3526 10.425Z" fill="url(#paint6_linear_19_5489)"/>
</mask>
<g mask="url(#mask3_19_5489)">
<path d="M98.3526 10.425C101.24 10.425 103.581 8.09121 103.581 5.21245C103.581 2.33368 101.24 0 98.3526 0C95.4651 0 93.1243 2.33368 93.1243 5.21245C93.1243 8.09121 95.4651 10.425 98.3526 10.425Z" fill="url(#paint7_linear_19_5489)"/>
</g>
<mask id="mask4_19_5489" style="mask-type:alpha" maskUnits="userSpaceOnUse" x="2" y="26" width="11" height="11">
<path d="M7.5094 36.5958C10.397 36.5958 12.7378 34.2621 12.7378 31.3834C12.7378 28.5046 10.397 26.171 7.5094 26.171C4.62184 26.171 2.28101 28.5046 2.28101 31.3834C2.28101 34.2621 4.62184 36.5958 7.5094 36.5958Z" fill="url(#paint8_linear_19_5489)"/>
</mask>
<g mask="url(#mask4_19_5489)">
<path d="M7.5094 36.5958C10.397 36.5958 12.7378 34.2621 12.7378 31.3834C12.7378 28.5046 10.397 26.171 7.5094 26.171C4.62184 26.171 2.28101 28.5046 2.28101 31.3834C2.28101 34.2621 4.62184 36.5958 7.5094 36.5958Z" fill="url(#paint9_linear_19_5489)"/>
</g>
<mask id="mask5_19_5489" style="mask-type:alpha" maskUnits="userSpaceOnUse" x="32" y="26" width="12" height="11">
<path d="M37.7904 36.5958C40.678 36.5958 43.0188 34.2621 43.0188 31.3834C43.0188 28.5046 40.678 26.171 37.7904 26.171C34.9028 26.171 32.562 28.5046 32.562 31.3834C32.562 34.2621 34.9028 36.5958 37.7904 36.5958Z" fill="url(#paint10_linear_19_5489)"/>
</mask>
<g mask="url(#mask5_19_5489)">
<path d="M37.7904 36.5958C40.678 36.5958 43.0188 34.2621 43.0188 31.3834C43.0188 28.5046 40.678 26.171 37.7904 26.171C34.9028 26.171 32.562 28.5046 32.562 31.3834C32.562 34.2621 34.9028 36.5958 37.7904 36.5958Z" fill="url(#paint11_linear_19_5489)"/>
</g>
<mask id="mask6_19_5489" style="mask-type:alpha" maskUnits="userSpaceOnUse" x="62" y="26" width="12" height="11">
<path d="M68.0717 36.5958C70.9592 36.5958 73.3 34.2621 73.3 31.3834C73.3 28.5046 70.9592 26.171 68.0717 26.171C65.1841 26.171 62.8433 28.5046 62.8433 31.3834C62.8433 34.2621 65.1841 36.5958 68.0717 36.5958Z" fill="url(#paint12_linear_19_5489)"/>
</mask>
<g mask="url(#mask6_19_5489)">
<path d="M68.0717 36.5958C70.9592 36.5958 73.3 34.2621 73.3 31.3834C73.3 28.5046 70.9592 26.171 68.0717 26.171C65.1841 26.171 62.8433 28.5046 62.8433 31.3834C62.8433 34.2621 65.1841 36.5958 68.0717 36.5958Z" fill="url(#paint13_linear_19_5489)"/>
</g>
<mask id="mask7_19_5489" style="mask-type:alpha" maskUnits="userSpaceOnUse" x="93" y="26" width="11" height="11">
<path d="M98.3526 36.5958C101.24 36.5958 103.581 34.2621 103.581 31.3834C103.581 28.5046 101.24 26.171 98.3526 26.171C95.4651 26.171 93.1243 28.5046 93.1243 31.3834C93.1243 34.2621 95.4651 36.5958 98.3526 36.5958Z" fill="url(#paint14_linear_19_5489)"/>
</mask>
<g mask="url(#mask7_19_5489)">
<path d="M98.3526 36.5958C101.24 36.5958 103.581 34.2621 103.581 31.3834C103.581 28.5046 101.24 26.171 98.3526 26.171C95.4651 26.171 93.1243 28.5046 93.1243 31.3834C93.1243 34.2621 95.4651 36.5958 98.3526 36.5958Z" fill="url(#paint15_linear_19_5489)"/>
</g>
<mask id="mask8_19_5489" style="mask-type:alpha" maskUnits="userSpaceOnUse" x="2" y="52" width="11" height="11">
<path d="M7.5094 62.7125C10.397 62.7125 12.7378 60.3788 12.7378 57.5C12.7378 54.6212 10.397 52.2875 7.5094 52.2875C4.62184 52.2875 2.28101 54.6212 2.28101 57.5C2.28101 60.3788 4.62184 62.7125 7.5094 62.7125Z" fill="url(#paint16_linear_19_5489)"/>
</mask>
<g mask="url(#mask8_19_5489)">
<path d="M7.5094 62.7125C10.397 62.7125 12.7378 60.3788 12.7378 57.5C12.7378 54.6212 10.397 52.2875 7.5094 52.2875C4.62184 52.2875 2.28101 54.6212 2.28101 57.5C2.28101 60.3788 4.62184 62.7125 7.5094 62.7125Z" fill="url(#paint17_linear_19_5489)"/>
</g>
<mask id="mask9_19_5489" style="mask-type:alpha" maskUnits="userSpaceOnUse" x="32" y="52" width="12" height="11">
<path d="M37.7904 62.7125C40.678 62.7125 43.0188 60.3788 43.0188 57.5C43.0188 54.6212 40.678 52.2875 37.7904 52.2875C34.9028 52.2875 32.562 54.6212 32.562 57.5C32.562 60.3788 34.9028 62.7125 37.7904 62.7125Z" fill="url(#paint18_linear_19_5489)"/>
</mask>
<g mask="url(#mask9_19_5489)">
<path d="M37.7904 62.7125C40.678 62.7125 43.0188 60.3788 43.0188 57.5C43.0188 54.6212 40.678 52.2875 37.7904 52.2875C34.9028 52.2875 32.562 54.6212 32.562 57.5C32.562 60.3788 34.9028 62.7125 37.7904 62.7125Z" fill="url(#paint19_linear_19_5489)"/>
</g>
<mask id="mask10_19_5489" style="mask-type:alpha" maskUnits="userSpaceOnUse" x="62" y="52" width="12" height="11">
<path d="M68.0717 62.7125C70.9592 62.7125 73.3 60.3788 73.3 57.5C73.3 54.6212 70.9592 52.2875 68.0717 52.2875C65.1841 52.2875 62.8433 54.6212 62.8433 57.5C62.8433 60.3788 65.1841 62.7125 68.0717 62.7125Z" fill="url(#paint20_linear_19_5489)"/>
</mask>
<g mask="url(#mask10_19_5489)">
<path d="M68.0717 62.7125C70.9592 62.7125 73.3 60.3788 73.3 57.5C73.3 54.6212 70.9592 52.2875 68.0717 52.2875C65.1841 52.2875 62.8433 54.6212 62.8433 57.5C62.8433 60.3788 65.1841 62.7125 68.0717 62.7125Z" fill="url(#paint21_linear_19_5489)"/>
</g>
<mask id="mask11_19_5489" style="mask-type:alpha" maskUnits="userSpaceOnUse" x="93" y="52" width="11" height="11">
<path d="M98.3526 62.7125C101.24 62.7125 103.581 60.3788 103.581 57.5C103.581 54.6212 101.24 52.2875 98.3526 52.2875C95.4651 52.2875 93.1243 54.6212 93.1243 57.5C93.1243 60.3788 95.4651 62.7125 98.3526 62.7125Z" fill="url(#paint22_linear_19_5489)"/>
</mask>
<g mask="url(#mask11_19_5489)">
<path d="M98.3526 62.7125C101.24 62.7125 103.581 60.3788 103.581 57.5C103.581 54.6212 101.24 52.2875 98.3526 52.2875C95.4651 52.2875 93.1243 54.6212 93.1243 57.5C93.1243 60.3788 95.4651 62.7125 98.3526 62.7125Z" fill="url(#paint23_linear_19_5489)"/>
</g>
<mask id="mask12_19_5489" style="mask-type:alpha" maskUnits="userSpaceOnUse" x="2" y="78" width="11" height="11">
<path d="M7.5094 88.8834C10.397 88.8834 12.7378 86.5496 12.7378 83.6709C12.7378 80.7921 10.397 78.4584 7.5094 78.4584C4.62184 78.4584 2.28101 80.7921 2.28101 83.6709C2.28101 86.5496 4.62184 88.8834 7.5094 88.8834Z" fill="url(#paint24_linear_19_5489)"/>
</mask>
<g mask="url(#mask12_19_5489)">
<path d="M7.5094 88.8834C10.397 88.8834 12.7378 86.5496 12.7378 83.6709C12.7378 80.7921 10.397 78.4584 7.5094 78.4584C4.62184 78.4584 2.28101 80.7921 2.28101 83.6709C2.28101 86.5496 4.62184 88.8834 7.5094 88.8834Z" fill="url(#paint25_linear_19_5489)"/>
</g>
<mask id="mask13_19_5489" style="mask-type:alpha" maskUnits="userSpaceOnUse" x="32" y="78" width="12" height="11">
<path d="M37.7904 88.8834C40.678 88.8834 43.0188 86.5496 43.0188 83.6709C43.0188 80.7921 40.678 78.4584 37.7904 78.4584C34.9028 78.4584 32.562 80.7921 32.562 83.6709C32.562 86.5496 34.9028 88.8834 37.7904 88.8834Z" fill="url(#paint26_linear_19_5489)"/>
</mask>
<g mask="url(#mask13_19_5489)">
<path d="M37.7904 88.8834C40.678 88.8834 43.0188 86.5496 43.0188 83.6709C43.0188 80.7921 40.678 78.4584 37.7904 78.4584C34.9028 78.4584 32.562 80.7921 32.562 83.6709C32.562 86.5496 34.9028 88.8834 37.7904 88.8834Z" fill="url(#paint27_linear_19_5489)"/>
</g>
<mask id="mask14_19_5489" style="mask-type:alpha" maskUnits="userSpaceOnUse" x="62" y="78" width="12" height="11">
<path d="M68.0717 88.8834C70.9592 88.8834 73.3 86.5496 73.3 83.6709C73.3 80.7921 70.9592 78.4584 68.0717 78.4584C65.1841 78.4584 62.8433 80.7921 62.8433 83.6709C62.8433 86.5496 65.1841 88.8834 68.0717 88.8834Z" fill="url(#paint28_linear_19_5489)"/>
</mask>
<g mask="url(#mask14_19_5489)">
<path d="M68.0717 88.8834C70.9592 88.8834 73.3 86.5496 73.3 83.6709C73.3 80.7921 70.9592 78.4584 68.0717 78.4584C65.1841 78.4584 62.8433 80.7921 62.8433 83.6709C62.8433 86.5496 65.1841 88.8834 68.0717 88.8834Z" fill="url(#paint29_linear_19_5489)"/>
</g>
<mask id="mask15_19_5489" style="mask-type:alpha" maskUnits="userSpaceOnUse" x="93" y="78" width="11" height="11">
<path d="M98.3526 88.8834C101.24 88.8834 103.581 86.5496 103.581 83.6709C103.581 80.7921 101.24 78.4584 98.3526 78.4584C95.4651 78.4584 93.1243 80.7921 93.1243 83.6709C93.1243 86.5496 95.4651 88.8834 98.3526 88.8834Z" fill="url(#paint30_linear_19_5489)"/>
</mask>
<g mask="url(#mask15_19_5489)">
<path d="M98.3526 88.8834C101.24 88.8834 103.581 86.5496 103.581 83.6709C103.581 80.7921 101.24 78.4584 98.3526 78.4584C95.4651 78.4584 93.1243 80.7921 93.1243 83.6709C93.1243 86.5496 95.4651 88.8834 98.3526 88.8834Z" fill="url(#paint31_linear_19_5489)"/>
</g>
<mask id="mask16_19_5489" style="mask-type:alpha" maskUnits="userSpaceOnUse" x="2" y="104" width="11" height="11">
<path d="M7.5094 115C10.397 115 12.7378 112.666 12.7378 109.788C12.7378 106.909 10.397 104.575 7.5094 104.575C4.62184 104.575 2.28101 106.909 2.28101 109.788C2.28101 112.666 4.62184 115 7.5094 115Z" fill="url(#paint32_linear_19_5489)"/>
</mask>
<g mask="url(#mask16_19_5489)">
<path d="M7.5094 115C10.397 115 12.7378 112.666 12.7378 109.788C12.7378 106.909 10.397 104.575 7.5094 104.575C4.62184 104.575 2.28101 106.909 2.28101 109.788C2.28101 112.666 4.62184 115 7.5094 115Z" fill="url(#paint33_linear_19_5489)"/>
</g>
<mask id="mask17_19_5489" style="mask-type:alpha" maskUnits="userSpaceOnUse" x="32" y="104" width="12" height="11">
<path d="M37.7904 115C40.678 115 43.0188 112.666 43.0188 109.788C43.0188 106.909 40.678 104.575 37.7904 104.575C34.9028 104.575 32.562 106.909 32.562 109.788C32.562 112.666 34.9028 115 37.7904 115Z" fill="url(#paint34_linear_19_5489)"/>
</mask>
<g mask="url(#mask17_19_5489)">
<path d="M37.7904 115C40.678 115 43.0188 112.666 43.0188 109.788C43.0188 106.909 40.678 104.575 37.7904 104.575C34.9028 104.575 32.562 106.909 32.562 109.788C32.562 112.666 34.9028 115 37.7904 115Z" fill="url(#paint35_linear_19_5489)"/>
</g>
<mask id="mask18_19_5489" style="mask-type:alpha" maskUnits="userSpaceOnUse" x="62" y="104" width="12" height="11">
<path d="M68.0717 115C70.9592 115 73.3 112.666 73.3 109.788C73.3 106.909 70.9592 104.575 68.0717 104.575C65.1841 104.575 62.8433 106.909 62.8433 109.788C62.8433 112.666 65.1841 115 68.0717 115Z" fill="url(#paint36_linear_19_5489)"/>
</mask>
<g mask="url(#mask18_19_5489)">
<path d="M68.0717 115C70.9592 115 73.3 112.666 73.3 109.788C73.3 106.909 70.9592 104.575 68.0717 104.575C65.1841 104.575 62.8433 106.909 62.8433 109.788C62.8433 112.666 65.1841 115 68.0717 115Z" fill="url(#paint37_linear_19_5489)"/>
</g>
<mask id="mask19_19_5489" style="mask-type:alpha" maskUnits="userSpaceOnUse" x="93" y="104" width="11" height="11">
<path d="M98.3526 115C101.24 115 103.581 112.666 103.581 109.788C103.581 106.909 101.24 104.575 98.3526 104.575C95.4651 104.575 93.1243 106.909 93.1243 109.788C93.1243 112.666 95.4651 115 98.3526 115Z" fill="url(#paint38_linear_19_5489)"/>
</mask>
<g mask="url(#mask19_19_5489)">
<path d="M98.3526 115C101.24 115 103.581 112.666 103.581 109.788C103.581 106.909 101.24 104.575 98.3526 104.575C95.4651 104.575 93.1243 106.909 93.1243 109.788C93.1243 112.666 95.4651 115 98.3526 115Z" fill="url(#paint39_linear_19_5489)"/>
</g>
</g>
<defs>
<linearGradient id="paint0_linear_19_5489" x1="53.2005" y1="120.843" x2="-18.2012" y2="-60.9613" gradientUnits="userSpaceOnUse">
<stop/>
<stop offset="1" stop-color="white"/>
</linearGradient>
<linearGradient id="paint1_linear_19_5489" x1="53.2005" y1="120.843" x2="-18.2012" y2="-60.9613" gradientUnits="userSpaceOnUse">
<stop stop-color="#97C3F9"/>
<stop offset="1" stop-color="#93C1F9"/>
</linearGradient>
<linearGradient id="paint2_linear_19_5489" x1="79.4048" y1="110.551" x2="8.00322" y2="-71.2526" gradientUnits="userSpaceOnUse">
<stop/>
<stop offset="1" stop-color="white"/>
</linearGradient>
<linearGradient id="paint3_linear_19_5489" x1="79.4048" y1="110.551" x2="8.00322" y2="-71.2526" gradientUnits="userSpaceOnUse">
<stop stop-color="#97C3F9"/>
<stop offset="1" stop-color="#93C1F9"/>
</linearGradient>
<linearGradient id="paint4_linear_19_5489" x1="105.609" y1="100.259" x2="34.2076" y2="-81.5444" gradientUnits="userSpaceOnUse">
<stop/>
<stop offset="1" stop-color="white"/>
</linearGradient>
<linearGradient id="paint5_linear_19_5489" x1="105.609" y1="100.259" x2="34.2076" y2="-81.5444" gradientUnits="userSpaceOnUse">
<stop stop-color="#97C3F9"/>
<stop offset="1" stop-color="#93C1F9"/>
</linearGradient>
<linearGradient id="paint6_linear_19_5489" x1="131.813" y1="89.9679" x2="60.4119" y2="-91.8359" gradientUnits="userSpaceOnUse">
<stop/>
<stop offset="1" stop-color="white"/>
</linearGradient>
<linearGradient id="paint7_linear_19_5489" x1="131.813" y1="89.9679" x2="60.4119" y2="-91.8359" gradientUnits="userSpaceOnUse">
<stop stop-color="#97C3F9"/>
<stop offset="1" stop-color="#93C1F9"/>
</linearGradient>
<linearGradient id="paint8_linear_19_5489" x1="44.258" y1="124.354" x2="-27.1423" y2="-57.449" gradientUnits="userSpaceOnUse">
<stop/>
<stop offset="1" stop-color="white"/>
</linearGradient>
<linearGradient id="paint9_linear_19_5489" x1="44.258" y1="124.354" x2="-27.1423" y2="-57.449" gradientUnits="userSpaceOnUse">
<stop stop-color="#97C3F9"/>
<stop offset="1" stop-color="#93C1F9"/>
</linearGradient>
<linearGradient id="paint10_linear_19_5489" x1="70.4623" y1="114.062" x2="-0.938065" y2="-67.7403" gradientUnits="userSpaceOnUse">
<stop/>
<stop offset="1" stop-color="white"/>
</linearGradient>
<linearGradient id="paint11_linear_19_5489" x1="70.4623" y1="114.062" x2="-0.938065" y2="-67.7403" gradientUnits="userSpaceOnUse">
<stop stop-color="#97C3F9"/>
<stop offset="1" stop-color="#93C1F9"/>
</linearGradient>
<linearGradient id="paint12_linear_19_5489" x1="96.6668" y1="103.771" x2="25.2664" y2="-78.0318" gradientUnits="userSpaceOnUse">
<stop/>
<stop offset="1" stop-color="white"/>
</linearGradient>
<linearGradient id="paint13_linear_19_5489" x1="96.6668" y1="103.771" x2="25.2664" y2="-78.0318" gradientUnits="userSpaceOnUse">
<stop stop-color="#97C3F9"/>
<stop offset="1" stop-color="#93C1F9"/>
</linearGradient>
<linearGradient id="paint14_linear_19_5489" x1="122.871" y1="93.4794" x2="51.4707" y2="-88.3231" gradientUnits="userSpaceOnUse">
<stop/>
<stop offset="1" stop-color="white"/>
</linearGradient>
<linearGradient id="paint15_linear_19_5489" x1="122.871" y1="93.4794" x2="51.4707" y2="-88.3231" gradientUnits="userSpaceOnUse">
<stop stop-color="#97C3F9"/>
<stop offset="1" stop-color="#93C1F9"/>
</linearGradient>
<linearGradient id="paint16_linear_19_5489" x1="35.3157" y1="127.866" x2="-36.086" y2="-53.9374" gradientUnits="userSpaceOnUse">
<stop/>
<stop offset="1" stop-color="white"/>
</linearGradient>
<linearGradient id="paint17_linear_19_5489" x1="35.3157" y1="127.866" x2="-36.086" y2="-53.9374" gradientUnits="userSpaceOnUse">
<stop stop-color="#97C3F9"/>
<stop offset="1" stop-color="#93C1F9"/>
</linearGradient>
<linearGradient id="paint18_linear_19_5489" x1="61.5199" y1="117.575" x2="-9.88163" y2="-64.2288" gradientUnits="userSpaceOnUse">
<stop/>
<stop offset="1" stop-color="white"/>
</linearGradient>
<linearGradient id="paint19_linear_19_5489" x1="61.5199" y1="117.575" x2="-9.88163" y2="-64.2288" gradientUnits="userSpaceOnUse">
<stop stop-color="#97C3F9"/>
<stop offset="1" stop-color="#93C1F9"/>
</linearGradient>
<linearGradient id="paint20_linear_19_5489" x1="87.7244" y1="107.283" x2="16.3228" y2="-74.5205" gradientUnits="userSpaceOnUse">
<stop/>
<stop offset="1" stop-color="white"/>
</linearGradient>
<linearGradient id="paint21_linear_19_5489" x1="87.7244" y1="107.283" x2="16.3228" y2="-74.5205" gradientUnits="userSpaceOnUse">
<stop stop-color="#97C3F9"/>
<stop offset="1" stop-color="#93C1F9"/>
</linearGradient>
<linearGradient id="paint22_linear_19_5489" x1="113.929" y1="96.9919" x2="42.5271" y2="-84.812" gradientUnits="userSpaceOnUse">
<stop/>
<stop offset="1" stop-color="white"/>
</linearGradient>
<linearGradient id="paint23_linear_19_5489" x1="113.929" y1="96.9919" x2="42.5271" y2="-84.812" gradientUnits="userSpaceOnUse">
<stop stop-color="#97C3F9"/>
<stop offset="1" stop-color="#93C1F9"/>
</linearGradient>
<linearGradient id="paint24_linear_19_5489" x1="26.3733" y1="131.379" x2="-45.0284" y2="-50.4253" gradientUnits="userSpaceOnUse">
<stop/>
<stop offset="1" stop-color="white"/>
</linearGradient>
<linearGradient id="paint25_linear_19_5489" x1="26.3733" y1="131.379" x2="-45.0284" y2="-50.4253" gradientUnits="userSpaceOnUse">
<stop stop-color="#97C3F9"/>
<stop offset="1" stop-color="#93C1F9"/>
</linearGradient>
<linearGradient id="paint26_linear_19_5489" x1="52.5775" y1="121.087" x2="-18.824" y2="-60.7168" gradientUnits="userSpaceOnUse">
<stop/>
<stop offset="1" stop-color="white"/>
</linearGradient>
<linearGradient id="paint27_linear_19_5489" x1="52.5775" y1="121.087" x2="-18.824" y2="-60.7168" gradientUnits="userSpaceOnUse">
<stop stop-color="#97C3F9"/>
<stop offset="1" stop-color="#93C1F9"/>
</linearGradient>
<linearGradient id="paint28_linear_19_5489" x1="78.7821" y1="110.795" x2="7.38043" y2="-71.0084" gradientUnits="userSpaceOnUse">
<stop/>
<stop offset="1" stop-color="white"/>
</linearGradient>
<linearGradient id="paint29_linear_19_5489" x1="78.7821" y1="110.795" x2="7.38043" y2="-71.0084" gradientUnits="userSpaceOnUse">
<stop stop-color="#97C3F9"/>
<stop offset="1" stop-color="#93C1F9"/>
</linearGradient>
<linearGradient id="paint30_linear_19_5489" x1="104.986" y1="100.504" x2="33.5847" y2="-81.3" gradientUnits="userSpaceOnUse">
<stop/>
<stop offset="1" stop-color="white"/>
</linearGradient>
<linearGradient id="paint31_linear_19_5489" x1="104.986" y1="100.504" x2="33.5847" y2="-81.3" gradientUnits="userSpaceOnUse">
<stop stop-color="#97C3F9"/>
<stop offset="1" stop-color="#93C1F9"/>
</linearGradient>
<linearGradient id="paint32_linear_19_5489" x1="17.4309" y1="134.89" x2="-53.9707" y2="-46.9134" gradientUnits="userSpaceOnUse">
<stop/>
<stop offset="1" stop-color="white"/>
</linearGradient>
<linearGradient id="paint33_linear_19_5489" x1="17.4309" y1="134.89" x2="-53.9707" y2="-46.9134" gradientUnits="userSpaceOnUse">
<stop stop-color="#97C3F9"/>
<stop offset="1" stop-color="#93C1F9"/>
</linearGradient>
<linearGradient id="paint34_linear_19_5489" x1="43.6352" y1="124.599" x2="-27.7664" y2="-57.2047" gradientUnits="userSpaceOnUse">
<stop/>
<stop offset="1" stop-color="white"/>
</linearGradient>
<linearGradient id="paint35_linear_19_5489" x1="43.6352" y1="124.599" x2="-27.7664" y2="-57.2047" gradientUnits="userSpaceOnUse">
<stop stop-color="#97C3F9"/>
<stop offset="1" stop-color="#93C1F9"/>
</linearGradient>
<linearGradient id="paint36_linear_19_5489" x1="69.8397" y1="114.307" x2="-1.56191" y2="-67.4964" gradientUnits="userSpaceOnUse">
<stop/>
<stop offset="1" stop-color="white"/>
</linearGradient>
<linearGradient id="paint37_linear_19_5489" x1="69.8397" y1="114.307" x2="-1.56191" y2="-67.4964" gradientUnits="userSpaceOnUse">
<stop stop-color="#97C3F9"/>
<stop offset="1" stop-color="#93C1F9"/>
</linearGradient>
<linearGradient id="paint38_linear_19_5489" x1="96.044" y1="104.016" x2="24.6424" y2="-77.7879" gradientUnits="userSpaceOnUse">
<stop/>
<stop offset="1" stop-color="white"/>
</linearGradient>
<linearGradient id="paint39_linear_19_5489" x1="96.044" y1="104.016" x2="24.6424" y2="-77.7879" gradientUnits="userSpaceOnUse">
<stop stop-color="#97C3F9"/>
<stop offset="1" stop-color="#93C1F9"/>
</linearGradient>
</defs>
</svg>
